<svg width="2203" height="2236" viewBox="0 0 2203 2236" fill="none" xmlns="http://www.w3.org/2000/svg" xmlns:xlink="http://www.w3.org/1999/xlink">
<path d="M1029.14 1933.06C695.376 1934.43 453.391 1734.7 463.722 1471.05C474.054 1207.39 632.957 1239.82 767.971 958.295C894.214 695.061 886.794 288.243 1172.87 230.021C1694.61 123.838 1977.2 1049.59 1686.29 1495.52C1515.65 1757.1 1239.14 1932.19 1029.14 1933.06Z" fill="#D18539"/>
<path d="M932.667 1888.49C598.904 1889.87 369.591 1724.29 379.922 1460.63C390.254 1196.98 493.881 1153.88 628.895 872.361C755.138 609.127 790.321 243.678 1076.4 185.456C1598.13 79.273 1880.73 1005.02 1589.82 1450.95C1419.17 1712.53 1142.67 1887.63 932.667 1888.49Z" fill="#EF9E3F"/>
<path d="M932.667 1888.49C598.904 1889.87 369.591 1724.29 379.922 1460.63C390.254 1196.98 493.881 1153.88 628.895 872.361C755.138 609.127 790.321 243.678 1076.4 185.456C1598.13 79.273 1880.73 1005.02 1589.82 1450.95C1419.17 1712.53 1142.67 1887.63 932.667 1888.49Z" fill="url(#pattern0_163_22)" fill-opacity="0.2"/>
<path d="M635.758 1228.53C453.595 1238.51 504.138 1692.71 637.197 1654.57C693.363 1638.47 755.19 1583.14 749.935 1438.03C744.688 1293.1 678.858 1226.17 635.758 1228.53Z" fill="#FFB068"/>
<ellipse cx="1338.97" cy="788.773" rx="79.1" ry="76.9179" transform="rotate(7.03528 1338.97 788.773)" fill="#0E0E0E"/>
<ellipse cx="1113.21" cy="1167.23" rx="124.337" ry="120.907" transform="rotate(7.03528 1113.21 1167.23)" fill="#0E0E0E"/>
<ellipse cx="1046.44" cy="753.011" rx="79.1" ry="76.9179" transform="rotate(7.03528 1046.44 753.011)" fill="#0E0E0E"/>
<g filter="url(#filter0_d_163_22)">
<path d="M1295.09 677.877C1292.18 659.049 1285.69 599.614 1311.48 559.302C1376.25 458.098 1674.14 491.374 1616.84 596.986C1603.2 622.132 1567.38 610.449 1562.77 638.684C1561.2 648.324 1565.63 658.505 1570.86 666.683C1576.59 675.64 1575.18 688.67 1567.03 695.5C1557.89 703.167 1547.94 713.593 1545.05 724.437C1537.93 751.15 1566.39 763.042 1571 790.3C1588.75 895.289 1338.5 714.968 1300.83 687.307C1297.68 684.991 1295.69 681.745 1295.09 677.877Z" fill="#D9D9D9"/>
</g>
<g filter="url(#filter1_d_163_22)">
<path d="M1122.31 665.173C1129.71 647.617 1150.45 591.544 1135.23 546.17C1097.01 432.257 799.975 392.113 829.877 508.487C836.996 536.194 874.583 533.571 872.183 562.078C871.363 571.811 864.597 580.61 857.534 587.272C849.799 594.566 847.993 607.547 854.237 616.153C861.247 625.815 868.363 638.346 868.531 649.568C868.943 677.211 838.444 681.826 827.346 707.146C784.603 804.669 1071.18 690.598 1114.45 672.925C1118.07 671.445 1120.79 668.78 1122.31 665.173Z" fill="#D9D9D9"/>
</g>
<g filter="url(#filter2_d_163_22)">
<path d="M1127.32 1094.41C1101.16 1011.64 1130.33 985.652 1185.14 958.468C1230.27 936.089 1306.73 993.862 1306.73 993.862C1306.73 993.862 1447.47 1098.56 1437.71 1114.07C1427.95 1129.58 1370.24 1132.1 1364.96 1141.7C1359.67 1151.29 1391.46 1249.51 1378.87 1256.41C1366.28 1263.3 1212.22 1181.72 1212.22 1181.72C1212.22 1181.72 1140.92 1137.46 1127.32 1094.41Z" fill="#D9D9D9"/>
<path d="M1117.27 1111.42C1174.12 1045.82 1157.65 1010.39 1118.12 963.691C1085.58 925.246 992.471 947.942 992.471 947.942C992.471 947.942 821.744 988.211 824.548 1006.32C827.353 1024.43 879.328 1049.64 880.371 1060.55C881.414 1071.45 813.266 1148.99 822.089 1160.32C830.913 1171.65 1004.69 1157.87 1004.69 1157.87C1004.69 1157.87 1087.7 1145.54 1117.27 1111.42Z" fill="#D9D9D9"/>
</g>
<g filter="url(#filter3_d_163_22)">
<path d="M986.136 1404.47L1153.29 1425.1C1164.06 1426.43 1170.41 1437.87 1165.85 1447.72L1113.48 1560.54C1109.51 1569.09 1099.05 1572.37 1090.91 1567.62L1051.11 1544.4C1047.13 1542.08 1042.35 1541.59 1037.98 1543.04L1002.1 1555.02C992.415 1558.26 982.219 1551.71 981.126 1541.56L968.268 1422.06C967.165 1411.81 975.903 1403.21 986.136 1404.47Z" fill="#D9D9D9"/>
</g>
<defs>
<filter id="filter0_d_163_22" x="1292.17" y="498.344" width="336.942" height="339.488" filterUnits="userSpaceOnUse" color-interpolation-filters="sRGB">
<feFlood flood-opacity="0" result="BackgroundImageFix"/>
<feColorMatrix in="SourceAlpha" type="matrix" values="0 0 0 0 0 0 0 0 0 0 0 0 0 0 0 0 0 0 127 0" result="hardAlpha"/>
<feOffset dx="5" dy="15"/>
<feComposite in2="hardAlpha" operator="out"/>
<feColorMatrix type="matrix" values="0 0 0 0 0 0 0 0 0 0 0 0 0 0 0 0 0 0 0.25 0"/>
<feBlend mode="normal" in2="BackgroundImageFix" result="effect1_dropShadow_163_22"/>
<feBlend mode="normal" in="SourceGraphic" in2="effect1_dropShadow_163_22" result="shape"/>
</filter>
<filter id="filter1_d_163_22" x="823.014" y="438.553" width="322.664" height="322.568" filterUnits="userSpaceOnUse" color-interpolation-filters="sRGB">
<feFlood flood-opacity="0" result="BackgroundImageFix"/>
<feColorMatrix in="SourceAlpha" type="matrix" values="0 0 0 0 0 0 0 0 0 0 0 0 0 0 0 0 0 0 127 0" result="hardAlpha"/>
<feOffset dx="5" dy="15"/>
<feComposite in2="hardAlpha" operator="out"/>
<feColorMatrix type="matrix" values="0 0 0 0 0 0 0 0 0 0 0 0 0 0 0 0 0 0 0.25 0"/>
<feBlend mode="normal" in2="BackgroundImageFix" result="effect1_dropShadow_163_22"/>
<feBlend mode="normal" in="SourceGraphic" in2="effect1_dropShadow_163_22" result="shape"/>
</filter>
<filter id="filter2_d_163_22" x="821.301" y="941.289" width="621.895" height="330.531" filterUnits="userSpaceOnUse" color-interpolation-filters="sRGB">
<feFlood flood-opacity="0" result="BackgroundImageFix"/>
<feColorMatrix in="SourceAlpha" type="matrix" values="0 0 0 0 0 0 0 0 0 0 0 0 0 0 0 0 0 0 127 0" result="hardAlpha"/>
<feOffset dx="5" dy="15"/>
<feComposite in2="hardAlpha" operator="out"/>
<feColorMatrix type="matrix" values="0 0 0 0 0 0 0 0 0 0 0 0 0 0 0 0 0 0 0.25 0"/>
<feBlend mode="normal" in2="BackgroundImageFix" result="effect1_dropShadow_163_22"/>
<feBlend mode="normal" in="SourceGraphic" in2="effect1_dropShadow_163_22" result="shape"/>
</filter>
<filter id="filter3_d_163_22" x="968.173" y="1404.35" width="204.172" height="180.457" filterUnits="userSpaceOnUse" color-interpolation-filters="sRGB">
<feFlood flood-opacity="0" result="BackgroundImageFix"/>
<feColorMatrix in="SourceAlpha" type="matrix" values="0 0 0 0 0 0 0 0 0 0 0 0 0 0 0 0 0 0 127 0" result="hardAlpha"/>
<feOffset dx="5" dy="15"/>
<feComposite in2="hardAlpha" operator="out"/>
<feColorMatrix type="matrix" values="0 0 0 0 0 0 0 0 0 0 0 0 0 0 0 0 0 0 0.25 0"/>
<feBlend mode="normal" in2="BackgroundImageFix" result="effect1_dropShadow_163_22"/>
<feBlend mode="normal" in="SourceGraphic" in2="effect1_dropShadow_163_22" result="shape"/>
</filter>
<pattern id="pattern0_163_22" patternUnits="userSpaceOnUse" patternTransform="matrix(246.601 -282.777 565.555 493.202 889.257 2177.47)" preserveAspectRatio="none" viewBox="0 0 536 1072" width="1" height="1">
<use xlink:href="#pattern0_163_22_inner" transform="translate(-536 0)"/>
<g id="pattern0_163_22_inner">
<circle cx="67" cy="67" r="67" fill="#7F4E1D"/>
</g>
<use xlink:href="#pattern0_163_22_inner" transform="translate(-268 536)"/>
<use xlink:href="#pattern0_163_22_inner" transform="translate(268 536)"/>
</pattern></defs>
</svg>
